<svg xmlns="http://www.w3.org/2000/svg" viewBox="0 0 1800 980" width="1800" height="980" font-family="'Courier New', Courier, monospace">
  <defs>
    <marker id="ah" markerWidth="8" markerHeight="8" refX="6" refY="3" orient="auto">
      <path d="M0,0 L0,6 L8,3 z" fill="#8b949e"/>
    </marker>
    <marker id="ah-blue" markerWidth="8" markerHeight="8" refX="6" refY="3" orient="auto">
      <path d="M0,0 L0,6 L8,3 z" fill="#58a6ff"/>
    </marker>
    <marker id="ah-green" markerWidth="8" markerHeight="8" refX="6" refY="3" orient="auto">
      <path d="M0,0 L0,6 L8,3 z" fill="#3fb950"/>
    </marker>
    <marker id="ah-orange" markerWidth="8" markerHeight="8" refX="6" refY="3" orient="auto">
      <path d="M0,0 L0,6 L8,3 z" fill="#f78166"/>
    </marker>
    <marker id="ah-purple" markerWidth="8" markerHeight="8" refX="6" refY="3" orient="auto">
      <path d="M0,0 L0,6 L8,3 z" fill="#d2a8ff"/>
    </marker>
  </defs>

  <!-- Background -->
  <rect width="1800" height="980" fill="#0d1117"/>

  <!-- Title -->
  <text x="900" y="28" text-anchor="middle" fill="#8b949e" font-size="13" font-weight="bold" letter-spacing="2">PROJECT ROCKPORT — ARCHITECTURE OVERVIEW</text>

  <!-- ═══════════════════════════════════════════════════════════ -->
  <!-- ZONE: CLIENT (x=14, w=170) -->
  <!-- ═══════════════════════════════════════════════════════════ -->
  <rect x="14" y="44" width="170" height="520" rx="6" fill="#161b22" stroke="#30363d" stroke-width="1.5"/>
  <text x="24" y="62" fill="#e6edf3" font-size="10" font-weight="bold" letter-spacing="1.5">CLIENT</text>

  <!-- Claude Code -->
  <rect x="24" y="72" width="150" height="76" rx="4" fill="#0d1f38" stroke="#58a6ff" stroke-width="1.5"/>
  <text x="99" y="100" text-anchor="middle" fill="#58a6ff" font-size="11" font-weight="bold">Claude Code</text>
  <text x="99" y="117" text-anchor="middle" fill="#8b949e" font-size="9">primary client</text>
  <text x="99" y="132" text-anchor="middle" fill="#8b949e" font-size="9">claude.ai/claude-code</text>

  <!-- API Applications -->
  <rect x="24" y="162" width="150" height="76" rx="4" fill="#1c2128" stroke="#30363d" stroke-width="1.5"/>
  <text x="99" y="190" text-anchor="middle" fill="#e6edf3" font-size="11" font-weight="bold">API Applications</text>
  <text x="99" y="207" text-anchor="middle" fill="#8b949e" font-size="9">other consumers</text>
  <text x="99" y="222" text-anchor="middle" fill="#8b949e" font-size="9">any OpenAI-compat client</text>

  <!-- ═══════════════════════════════════════════════════════════ -->
  <!-- ZONE: CLOUDFLARE EDGE (x=200, w=210) -->
  <!-- ═══════════════════════════════════════════════════════════ -->
  <rect x="200" y="44" width="210" height="520" rx="6" fill="#1a1208" stroke="#f78166" stroke-width="1.5" stroke-dasharray="4,3"/>
  <text x="212" y="62" fill="#f78166" font-size="10" font-weight="bold" letter-spacing="1.5">☁  CLOUDFLARE EDGE</text>

  <!-- WAF Allowlist -->
  <rect x="212" y="72" width="186" height="64" rx="4" fill="#261510" stroke="#f78166" stroke-width="1"/>
  <text x="305" y="92" text-anchor="middle" fill="#f78166" font-size="11" font-weight="bold">WAF Allowlist</text>
  <text x="305" y="108" text-anchor="middle" fill="#8b949e" font-size="9">path-based rules</text>
  <text x="305" y="122" text-anchor="middle" fill="#8b949e" font-size="9">blocks all except allowlist → 403</text>

  <!-- Cloudflare Access -->
  <rect x="212" y="148" width="186" height="64" rx="4" fill="#261510" stroke="#f78166" stroke-width="1.5"/>
  <text x="305" y="168" text-anchor="middle" fill="#f78166" font-size="11" font-weight="bold">Access (Service Token)</text>
  <text x="305" y="184" text-anchor="middle" fill="#8b949e" font-size="9">pre-auth at edge</text>
  <text x="305" y="198" text-anchor="middle" fill="#8b949e" font-size="9">CF-Access-Client-Id/Secret</text>

  <!-- HSTS -->
  <rect x="212" y="224" width="186" height="56" rx="4" fill="#261510" stroke="#f78166" stroke-width="1"/>
  <text x="305" y="244" text-anchor="middle" fill="#f78166" font-size="11" font-weight="bold">HSTS + Always-HTTPS</text>
  <text x="305" y="260" text-anchor="middle" fill="#8b949e" font-size="9">TLS termination · HTTPS redirect</text>

  <!-- Zero Trust Tunnel -->
  <rect x="212" y="292" width="186" height="80" rx="4" fill="#261510" stroke="#f78166" stroke-width="1.5"/>
  <text x="305" y="316" text-anchor="middle" fill="#f78166" font-size="11" font-weight="bold">Zero Trust Tunnel</text>
  <text x="305" y="333" text-anchor="middle" fill="#8b949e" font-size="9">CNAME DNS · proxied</text>
  <text x="305" y="347" text-anchor="middle" fill="#8b949e" font-size="9">outbound QUIC from EC2</text>

  <!-- ═══════════════════════════════════════════════════════════ -->
  <!-- ZONE: AWS ACCOUNT (x=428, w=930) -->
  <!-- ═══════════════════════════════════════════════════════════ -->
  <rect x="428" y="44" width="930" height="520" rx="6" fill="#0d1926" stroke="#58a6ff" stroke-width="1.5" stroke-dasharray="5,3"/>
  <text x="440" y="62" fill="#58a6ff" font-size="10" font-weight="bold" letter-spacing="1.5">☁  AWS ACCOUNT</text>

  <!-- Default VPC sub-zone -->
  <rect x="440" y="70" width="410" height="466" rx="4" fill="#0a1520" stroke="#58a6ff" stroke-width="1" stroke-dasharray="3,3"/>
  <text x="452" y="86" fill="#58a6ff" font-size="9" letter-spacing="1" opacity="0.7">DEFAULT VPC</text>

  <!-- EC2 Instance box -->
  <rect x="452" y="94" width="386" height="430" rx="4" fill="#111827" stroke="#58a6ff" stroke-width="1.5"/>
  <text x="645" y="112" text-anchor="middle" fill="#58a6ff" font-size="10" font-weight="bold">EC2 Instance · t3.small · Amazon Linux 2023</text>
  <text x="645" y="126" text-anchor="middle" fill="#8b949e" font-size="9">No inbound Security Group rules</text>

  <!-- cloudflared service -->
  <rect x="464" y="136" width="362" height="68" rx="4" fill="#1a1f2e" stroke="#d2a8ff" stroke-width="1.5"/>
  <text x="645" y="156" text-anchor="middle" fill="#d2a8ff" font-size="11" font-weight="bold">cloudflared</text>
  <text x="645" y="172" text-anchor="middle" fill="#8b949e" font-size="9">user: cloudflared · outbound QUIC → Cloudflare</text>
  <text x="645" y="186" text-anchor="middle" fill="#8b949e" font-size="9">/v1/videos/* + /v1/images/* (not generations/edits) → :4001 · else → :4000</text>

  <!-- LiteLLM Proxy -->
  <rect x="464" y="214" width="174" height="72" rx="4" fill="#0f2018" stroke="#3fb950" stroke-width="1.5"/>
  <text x="551" y="234" text-anchor="middle" fill="#3fb950" font-size="11" font-weight="bold">LiteLLM Proxy</text>
  <text x="551" y="250" text-anchor="middle" fill="#8b949e" font-size="9">localhost:4000</text>
  <text x="551" y="264" text-anchor="middle" fill="#8b949e" font-size="9">key auth · model routing</text>
  <text x="551" y="278" text-anchor="middle" fill="#8b949e" font-size="9">1280MB MemoryMax</text>

  <!-- Video Sidecar -->
  <rect x="652" y="214" width="174" height="72" rx="4" fill="#0f1820" stroke="#58a6ff" stroke-width="1.5"/>
  <text x="739" y="234" text-anchor="middle" fill="#58a6ff" font-size="11" font-weight="bold">Sidecar</text>
  <text x="739" y="250" text-anchor="middle" fill="#8b949e" font-size="9">localhost:4001</text>
  <text x="739" y="264" text-anchor="middle" fill="#8b949e" font-size="9">video + Nova Canvas</text>
  <text x="739" y="278" text-anchor="middle" fill="#8b949e" font-size="9">256MB MemoryMax</text>

  <!-- PostgreSQL -->
  <rect x="464" y="298" width="362" height="68" rx="4" fill="#1a1a0a" stroke="#e3b341" stroke-width="1.5"/>
  <text x="645" y="318" text-anchor="middle" fill="#e3b341" font-size="11" font-weight="bold">PostgreSQL 15</text>
  <text x="645" y="334" text-anchor="middle" fill="#8b949e" font-size="9">localhost:5432 · API keys + spend + video jobs</text>
  <text x="645" y="348" text-anchor="middle" fill="#8b949e" font-size="9">shared by LiteLLM and Video Sidecar</text>

  <!-- IAM Role note -->
  <rect x="464" y="378" width="362" height="46" rx="4" fill="#0d1117" stroke="#30363d" stroke-width="1"/>
  <text x="645" y="398" text-anchor="middle" fill="#8b949e" font-size="9">IAM Instance Role → Bedrock Invoke + AsyncInvoke + S3</text>
  <text x="645" y="414" text-anchor="middle" fill="#8b949e" font-size="9">no static credentials · per-model region routing</text>

  <!-- ── AWS Services panel (right side of AWS zone) ── -->
  <rect x="864" y="70" width="482" height="466" rx="4" fill="#0d1926" stroke="#30363d" stroke-width="1"/>
  <text x="876" y="86" fill="#8b949e" font-size="9" font-weight="bold" letter-spacing="1.5">AWS SERVICES</text>

  <!-- SSM Parameter Store -->
  <rect x="876" y="94" width="458" height="60" rx="3" fill="#111827" stroke="#58a6ff" stroke-width="1"/>
  <text x="1105" y="117" text-anchor="middle" fill="#58a6ff" font-size="10" font-weight="bold">SSM Parameter Store</text>
  <text x="1105" y="133" text-anchor="middle" fill="#8b949e" font-size="9">3 SecureString params: master-key · tunnel-token · db-password</text>

  <!-- CloudWatch -->
  <rect x="876" y="164" width="458" height="60" rx="3" fill="#111827" stroke="#58a6ff" stroke-width="1"/>
  <text x="1105" y="187" text-anchor="middle" fill="#58a6ff" font-size="10" font-weight="bold">CloudWatch</text>
  <text x="1105" y="203" text-anchor="middle" fill="#8b949e" font-size="9">metrics · alarms · auto-recovery · NetworkIn + CPU for idle · Lambda error alarm</text>

  <!-- EventBridge + Lambda -->
  <rect x="876" y="234" width="458" height="60" rx="3" fill="#111827" stroke="#d2a8ff" stroke-width="1"/>
  <text x="1105" y="257" text-anchor="middle" fill="#d2a8ff" font-size="10" font-weight="bold">EventBridge + Lambda</text>
  <text x="1105" y="273" text-anchor="middle" fill="#8b949e" font-size="9">idle shutdown · 5-min cron · stop if NetworkIn + CPU both low</text>

  <!-- DLM -->
  <rect x="876" y="304" width="218" height="60" rx="3" fill="#111827" stroke="#58a6ff" stroke-width="1"/>
  <text x="985" y="327" text-anchor="middle" fill="#58a6ff" font-size="10" font-weight="bold">DLM</text>
  <text x="985" y="343" text-anchor="middle" fill="#8b949e" font-size="9">daily EBS snapshots · 7-day retention</text>

  <!-- S3 -->
  <rect x="1104" y="304" width="230" height="60" rx="3" fill="#111827" stroke="#58a6ff" stroke-width="1"/>
  <text x="1219" y="323" text-anchor="middle" fill="#58a6ff" font-size="10" font-weight="bold">S3</text>
  <text x="1219" y="339" text-anchor="middle" fill="#8b949e" font-size="9">Terraform state bucket (eu-west-2)</text>
  <text x="1219" y="353" text-anchor="middle" fill="#8b949e" font-size="9">Video buckets (us-east-1 + us-west-2 · 7-day lifecycle)</text>

  <!-- AWS Budgets + SNS -->
  <rect x="876" y="374" width="458" height="60" rx="3" fill="#111827" stroke="#e3b341" stroke-width="1"/>
  <text x="1105" y="397" text-anchor="middle" fill="#e3b341" font-size="10" font-weight="bold">AWS Budgets + SNS</text>
  <text x="1105" y="413" text-anchor="middle" fill="#8b949e" font-size="9">daily $10 Bedrock alert · monthly $30 overall alert</text>

  <!-- CloudTrail -->
  <rect x="876" y="444" width="458" height="60" rx="3" fill="#111827" stroke="#58a6ff" stroke-width="1"/>
  <text x="1105" y="467" text-anchor="middle" fill="#58a6ff" font-size="10" font-weight="bold">CloudTrail</text>
  <text x="1105" y="483" text-anchor="middle" fill="#8b949e" font-size="9">management event logging · S3 bucket · 90-day retention</text>

  <!-- ═══════════════════════════════════════════════════════════ -->
  <!-- ZONE: BEDROCK (x=1374, w=412) -->
  <!-- ═══════════════════════════════════════════════════════════ -->
  <rect x="1374" y="44" width="412" height="520" rx="6" fill="#0d1a12" stroke="#3fb950" stroke-width="1.5" stroke-dasharray="5,3"/>
  <text x="1386" y="62" fill="#3fb950" font-size="10" font-weight="bold" letter-spacing="1.5">⚡  AWS BEDROCK</text>

  <!-- EU Regions box -->
  <rect x="1386" y="70" width="388" height="326" rx="4" fill="#0a1a10" stroke="#3fb950" stroke-width="1"/>
  <text x="1398" y="86" fill="#3fb950" font-size="9" letter-spacing="1" opacity="0.8">EU REGIONS · eu-west-2 (Claude uses eu.* cross-region profiles)</text>

  <!-- Claude models -->
  <rect x="1396" y="94" width="116" height="44" rx="3" fill="#0f2018" stroke="#f78166" stroke-width="1"/>
  <text x="1454" y="112" text-anchor="middle" fill="#f78166" font-size="9" font-weight="bold">claude-opus-4-6</text>
  <text x="1454" y="126" text-anchor="middle" fill="#8b949e" font-size="8">eu.* prefix</text>

  <rect x="1522" y="94" width="116" height="44" rx="3" fill="#0f2018" stroke="#f78166" stroke-width="1"/>
  <text x="1580" y="112" text-anchor="middle" fill="#f78166" font-size="9" font-weight="bold">claude-sonnet-4-6</text>
  <text x="1580" y="126" text-anchor="middle" fill="#8b949e" font-size="8">eu.* prefix</text>

  <rect x="1648" y="94" width="116" height="44" rx="3" fill="#0f2018" stroke="#f78166" stroke-width="1"/>
  <text x="1706" y="112" text-anchor="middle" fill="#f78166" font-size="9" font-weight="bold">claude-haiku-4-5</text>
  <text x="1706" y="126" text-anchor="middle" fill="#8b949e" font-size="8">eu.* prefix</text>

  <!-- Third-party models -->
  <rect x="1396" y="150" width="116" height="44" rx="3" fill="#0f2018" stroke="#58a6ff" stroke-width="1"/>
  <text x="1454" y="168" text-anchor="middle" fill="#58a6ff" font-size="9" font-weight="bold">deepseek-v3.2</text>
  <text x="1454" y="182" text-anchor="middle" fill="#8b949e" font-size="8">eu-west-2</text>

  <rect x="1522" y="150" width="116" height="44" rx="3" fill="#0f2018" stroke="#58a6ff" stroke-width="1"/>
  <text x="1580" y="168" text-anchor="middle" fill="#58a6ff" font-size="9" font-weight="bold">qwen3-coder-480b</text>
  <text x="1580" y="182" text-anchor="middle" fill="#8b949e" font-size="8">eu-west-2</text>

  <rect x="1648" y="150" width="116" height="44" rx="3" fill="#0f2018" stroke="#58a6ff" stroke-width="1"/>
  <text x="1706" y="168" text-anchor="middle" fill="#58a6ff" font-size="9" font-weight="bold">kimi-k2.5</text>
  <text x="1706" y="182" text-anchor="middle" fill="#8b949e" font-size="8">eu-west-2</text>

  <!-- Nova models -->
  <rect x="1396" y="206" width="116" height="44" rx="3" fill="#0f2018" stroke="#3fb950" stroke-width="1"/>
  <text x="1454" y="224" text-anchor="middle" fill="#3fb950" font-size="9" font-weight="bold">nova-pro</text>
  <text x="1454" y="238" text-anchor="middle" fill="#8b949e" font-size="8">eu-west-2</text>

  <rect x="1522" y="206" width="116" height="44" rx="3" fill="#0f2018" stroke="#3fb950" stroke-width="1"/>
  <text x="1580" y="224" text-anchor="middle" fill="#3fb950" font-size="9" font-weight="bold">nova-lite</text>
  <text x="1580" y="238" text-anchor="middle" fill="#8b949e" font-size="8">eu-west-2</text>

  <rect x="1648" y="206" width="116" height="44" rx="3" fill="#0f2018" stroke="#3fb950" stroke-width="1"/>
  <text x="1706" y="224" text-anchor="middle" fill="#3fb950" font-size="9" font-weight="bold">nova-micro</text>
  <text x="1706" y="238" text-anchor="middle" fill="#8b949e" font-size="8">eu-west-2</text>

  <!-- us-east-1 -->
  <rect x="1396" y="262" width="180" height="124" rx="3" fill="#0a1a10" stroke="#3fb950" stroke-width="1" stroke-dasharray="3,2"/>
  <text x="1408" y="278" fill="#3fb950" font-size="8" opacity="0.8">us-east-1</text>
  <rect x="1406" y="284" width="160" height="44" rx="3" fill="#0f2018" stroke="#3fb950" stroke-width="1"/>
  <text x="1486" y="302" text-anchor="middle" fill="#3fb950" font-size="9" font-weight="bold">nova-canvas</text>
  <text x="1486" y="318" text-anchor="middle" fill="#8b949e" font-size="8">image generation</text>
  <rect x="1406" y="334" width="160" height="44" rx="3" fill="#0f2018" stroke="#58a6ff" stroke-width="1.5"/>
  <text x="1486" y="352" text-anchor="middle" fill="#58a6ff" font-size="9" font-weight="bold">nova-reel</text>
  <text x="1486" y="366" text-anchor="middle" fill="#8b949e" font-size="8">video gen (async → S3)</text>

  <!-- us-west-2 -->
  <rect x="1586" y="262" width="188" height="258" rx="3" fill="#0a1a10" stroke="#3fb950" stroke-width="1" stroke-dasharray="3,2"/>
  <text x="1598" y="278" fill="#3fb950" font-size="8" opacity="0.8">us-west-2</text>
  <rect x="1596" y="284" width="168" height="40" rx="3" fill="#0f2018" stroke="#3fb950" stroke-width="1"/>
  <text x="1680" y="300" text-anchor="middle" fill="#3fb950" font-size="9" font-weight="bold">titan-image-v2</text>
  <text x="1680" y="314" text-anchor="middle" fill="#8b949e" font-size="8">image generation</text>
  <rect x="1596" y="334" width="168" height="40" rx="3" fill="#0f2018" stroke="#3fb950" stroke-width="1"/>
  <text x="1680" y="350" text-anchor="middle" fill="#3fb950" font-size="9" font-weight="bold">sd3.5-large</text>
  <text x="1680" y="364" text-anchor="middle" fill="#8b949e" font-size="8">image generation</text>
  <rect x="1596" y="384" width="168" height="40" rx="3" fill="#0f2018" stroke="#3fb950" stroke-width="1"/>
  <text x="1680" y="400" text-anchor="middle" fill="#3fb950" font-size="9" font-weight="bold">stable-image-ultra</text>
  <text x="1680" y="414" text-anchor="middle" fill="#8b949e" font-size="8">image generation</text>
  <rect x="1596" y="434" width="168" height="40" rx="3" fill="#0f2018" stroke="#3fb950" stroke-width="1"/>
  <text x="1680" y="450" text-anchor="middle" fill="#3fb950" font-size="9" font-weight="bold">stable-image-core</text>
  <text x="1680" y="464" text-anchor="middle" fill="#8b949e" font-size="8">image generation</text>
  <rect x="1596" y="480" width="168" height="32" rx="3" fill="#0f2018" stroke="#58a6ff" stroke-width="1.5"/>
  <text x="1680" y="500" text-anchor="middle" fill="#58a6ff" font-size="9" font-weight="bold">luma-ray2</text>
  <rect x="1396" y="400" width="170" height="44" rx="3" fill="#0f2018" stroke="#3fb950" stroke-width="1"/>
  <text x="1481" y="418" text-anchor="middle" fill="#3fb950" font-size="9" font-weight="bold">stability-* (13)</text>
  <text x="1481" y="432" text-anchor="middle" fill="#8b949e" font-size="8">image edit (us-west-2)</text>

  <!-- ═══════════════════════════════════════════════════════════ -->
  <!-- ZONE: ADMIN (bottom) -->
  <!-- ═══════════════════════════════════════════════════════════ -->
  <rect x="14" y="582" width="1772" height="86" rx="6" fill="#120e1a" stroke="#d2a8ff" stroke-width="1.5" stroke-dasharray="4,3"/>
  <text x="26" y="600" fill="#d2a8ff" font-size="10" font-weight="bold" letter-spacing="1.5">⚙  ADMIN</text>

  <rect x="26" y="608" width="200" height="52" rx="4" fill="#1a1327" stroke="#d2a8ff" stroke-width="1.5"/>
  <text x="126" y="630" text-anchor="middle" fill="#d2a8ff" font-size="11" font-weight="bold">rockport.sh</text>
  <text x="126" y="646" text-anchor="middle" fill="#8b949e" font-size="9">Admin CLI · local machine</text>

  <text x="250" y="626" fill="#8b949e" font-size="9">→  Cloudflare Tunnel URL (master key API calls)</text>
  <text x="250" y="644" fill="#8b949e" font-size="9">→  AWS SSM (remote commands: logs, upgrade, config push)   →  EC2 (start/stop)   →  Terraform (deploy)</text>

  <!-- ═══════════════════════════════════════════════════════════ -->
  <!-- ARROWS -->
  <!-- ═══════════════════════════════════════════════════════════ -->

  <!-- Client → Cloudflare (HTTPS) -->
  <line x1="174" y1="110" x2="212" y2="110" stroke="#58a6ff" stroke-width="1.5" marker-end="url(#ah-blue)"/>
  <rect x="176" y="96" width="34" height="13" fill="#0d1117"/>
  <text x="193" y="104" text-anchor="middle" fill="#58a6ff" font-size="8">HTTPS</text>

  <line x1="174" y1="200" x2="212" y2="200" stroke="#30363d" stroke-width="1.5" marker-end="url(#ah)"/>
  <rect x="176" y="186" width="34" height="13" fill="#0d1117"/>
  <text x="193" y="194" text-anchor="middle" fill="#8b949e" font-size="8">HTTPS</text>

  <!-- WAF → Access (internal) -->
  <line x1="305" y1="136" x2="305" y2="148" stroke="#f78166" stroke-width="1" marker-end="url(#ah-orange)"/>

  <!-- Access → HSTS (internal) -->
  <line x1="305" y1="212" x2="305" y2="224" stroke="#f78166" stroke-width="1" marker-end="url(#ah-orange)"/>

  <!-- HSTS → ZT Tunnel (internal) -->
  <line x1="305" y1="280" x2="305" y2="292" stroke="#f78166" stroke-width="1" marker-end="url(#ah-orange)"/>

  <!-- ZT Tunnel → cloudflared (outbound QUIC) -->
  <line x1="410" y1="332" x2="440" y2="332" stroke="#f78166" stroke-width="1.5"/>
  <line x1="440" y1="332" x2="440" y2="176" stroke="#f78166" stroke-width="1.5"/>
  <line x1="440" y1="176" x2="464" y2="176" stroke="#f78166" stroke-width="1.5" marker-end="url(#ah-orange)"/>
  <rect x="414" y="258" width="78" height="13" fill="#0d1117"/>
  <text x="453" y="266" text-anchor="middle" fill="#f78166" font-size="8">outbound QUIC</text>

  <!-- cloudflared → LiteLLM (:4000) -->
  <line x1="551" y1="204" x2="551" y2="214" stroke="#d2a8ff" stroke-width="1.5" marker-end="url(#ah-purple)"/>
  <text x="530" y="212" fill="#d2a8ff" font-size="8">:4000</text>

  <!-- cloudflared → Video Sidecar (:4001) -->
  <line x1="739" y1="204" x2="739" y2="214" stroke="#d2a8ff" stroke-width="1.5" marker-end="url(#ah-purple)"/>
  <text x="756" y="212" fill="#58a6ff" font-size="8">:4001</text>

  <!-- LiteLLM → PostgreSQL -->
  <line x1="551" y1="286" x2="551" y2="298" stroke="#3fb950" stroke-width="1.5" marker-end="url(#ah-green)"/>

  <!-- Video Sidecar → PostgreSQL -->
  <line x1="739" y1="286" x2="739" y2="298" stroke="#58a6ff" stroke-width="1.5" marker-end="url(#ah-blue)"/>
  <text x="645" y="296" text-anchor="middle" fill="#e3b341" font-size="8">:5432</text>

  <!-- LiteLLM → Bedrock (main request) -->
  <line x1="826" y1="268" x2="864" y2="268" stroke="#3fb950" stroke-width="1.5"/>
  <line x1="864" y1="268" x2="864" y2="180" stroke="#3fb950" stroke-width="1.5" stroke-dasharray="1,0"/>
  <line x1="864" y1="180" x2="1374" y2="180" stroke="#3fb950" stroke-width="2" marker-end="url(#ah-green)"/>
  <rect x="1050" y="166" width="110" height="13" fill="#0d1117"/>
  <text x="1105" y="174" text-anchor="middle" fill="#3fb950" font-size="8">HTTPS · IAM role auth</text>

  <!-- EC2 → SSM (fetch secrets on bootstrap) -->
  <path d="M 838 140 Q 850 124 876 124" stroke="#58a6ff" stroke-width="1.5" stroke-dasharray="4,3" fill="none" marker-end="url(#ah-blue)"/>
  <text x="870" y="120" text-anchor="middle" fill="#58a6ff" font-size="8">fetch secrets on bootstrap</text>

  <!-- Lambda → CloudWatch (read metric) -->
  <path d="M 1105 234 Q 1105 214 1105 224" stroke="#d2a8ff" stroke-width="1" stroke-dasharray="3,2" fill="none" marker-end="url(#ah-purple)"/>

  <!-- Lambda → EC2 (StopInstances) -->
  <path d="M 876 264 Q 840 264 826 280" stroke="#d2a8ff" stroke-width="1.5" stroke-dasharray="4,3" fill="none" marker-end="url(#ah-purple)"/>
  <rect x="816" y="250" width="76" height="13" fill="#0d1117"/>
  <text x="854" y="258" text-anchor="middle" fill="#d2a8ff" font-size="8">StopInstances</text>

  <!-- DLM → EC2 (EBS snapshot) -->
  <path d="M 876 334 Q 856 334 838 380" stroke="#58a6ff" stroke-width="1.5" stroke-dasharray="4,3" fill="none" marker-end="url(#ah-blue)"/>
  <rect x="828" y="344" width="62" height="13" fill="#0d1117"/>
  <text x="859" y="352" text-anchor="middle" fill="#58a6ff" font-size="8">EBS snapshot</text>

  <!-- Admin → CF Tunnel (master key) -->
  <path d="M 126 608 Q 126 560 305 560 Q 305 440 305 386" stroke="#d2a8ff" stroke-width="1.5" stroke-dasharray="4,3" fill="none" marker-end="url(#ah-purple)"/>
  <rect x="195" y="540" width="70" height="13" fill="#0d1117"/>
  <text x="230" y="548" text-anchor="middle" fill="#d2a8ff" font-size="8">master key</text>

  <!-- Admin → SSM (remote commands) -->
  <path d="M 226 620 Q 900 580 1040 154" stroke="#d2a8ff" stroke-width="1.5" stroke-dasharray="4,3" fill="none" marker-end="url(#ah-purple)"/>
  <rect x="680" y="574" width="80" height="13" fill="#0d1117"/>
  <text x="720" y="582" text-anchor="middle" fill="#d2a8ff" font-size="8">SSM remote cmds</text>

  <!-- Admin → EC2 start/stop -->
  <path d="M 226 634 Q 500 580 520 460" stroke="#d2a8ff" stroke-width="1" stroke-dasharray="3,3" fill="none" marker-end="url(#ah-purple)"/>
  <rect x="350" y="580" width="58" height="13" fill="#0d1117"/>
  <text x="379" y="588" text-anchor="middle" fill="#d2a8ff" font-size="8">start/stop</text>

  <!-- ═══════════════════════════════════════════════════════════ -->
  <!-- LEGEND -->
  <!-- ═══════════════════════════════════════════════════════════ -->
  <rect x="14" y="686" width="500" height="180" rx="6" fill="#161b22" stroke="#30363d" stroke-width="1.5"/>
  <text x="24" y="706" fill="#8b949e" font-size="10" font-weight="bold" letter-spacing="1">LEGEND</text>

  <rect x="24" y="718" width="12" height="12" rx="2" fill="#3fb950"/>
  <text x="44" y="729" fill="#e6edf3" font-size="10">LiteLLM Proxy / AWS Bedrock</text>

  <rect x="24" y="740" width="12" height="12" rx="2" fill="#f78166"/>
  <text x="44" y="751" fill="#e6edf3" font-size="10">Cloudflare Edge / Tunnel</text>

  <rect x="24" y="762" width="12" height="12" rx="2" fill="#58a6ff"/>
  <text x="44" y="773" fill="#e6edf3" font-size="10">AWS Services / Infrastructure</text>

  <rect x="24" y="784" width="12" height="12" rx="2" fill="#d2a8ff"/>
  <text x="44" y="795" fill="#e6edf3" font-size="10">EC2 Internal Services / Admin</text>

  <rect x="24" y="806" width="12" height="12" rx="2" fill="#e3b341"/>
  <text x="44" y="817" fill="#e6edf3" font-size="10">PostgreSQL / Budgets</text>

  <!-- line styles -->
  <line x1="250" y1="724" x2="290" y2="724" stroke="#8b949e" stroke-width="1.5"/>
  <text x="298" y="729" fill="#e6edf3" font-size="10">request / data flow</text>
  <line x1="250" y1="744" x2="290" y2="744" stroke="#8b949e" stroke-width="1.5" stroke-dasharray="4,3"/>
  <text x="298" y="749" fill="#e6edf3" font-size="10">control / management flow</text>

  <!-- Footer -->
  <text x="900" y="968" text-anchor="middle" fill="#8b949e" font-size="9" opacity="0.5">rockport · aws ec2 · cloudflare tunnel · litellm proxy · aws bedrock</text>
</svg>
